<?xml version="1.0" encoding="UTF-8"?>
<svg xmlns="http://www.w3.org/2000/svg" viewBox="0 0 300.11 300.11">
  <defs>
    <style>
      .cls-1 {
        fill: #3f59ff;
      }

      .cls-2 {
        fill: #53a0ff;
      }

      .cls-3 {
        fill: #4426b4;
      }

      .cls-4 {
        fill: #250992;
      }
    </style>
  </defs>
  <g id="Background">
    <g id="Roundel">
      <circle id="Outer_Ring" data-name="Outer Ring" class="cls-4" cx="150.05" cy="150.05" r="150.05"/>
    </g>
    <g id="Ring">
      <path class="cls-3" d="M150.05,9.6C72.48,9.6,9.6,72.48,9.6,150.05s62.89,140.46,140.46,140.46,140.46-62.89,140.46-140.46S227.63,9.6,150.05,9.6ZM150.05,278.47c-70.92,0-128.42-57.49-128.42-128.42S79.13,21.64,150.05,21.64s128.42,57.49,128.42,128.42-57.49,128.42-128.42,128.42Z"/>
    </g>
  </g>
  <g id="Text_Mark" data-name="Text Mark">
    <g id="Second_Plus" data-name="Second Plus">
      <polygon class="cls-2" points="261.98 152.5 246.27 152.5 246.27 136.79 240.43 136.79 240.43 152.5 224.72 152.5 224.72 158.33 240.43 158.33 240.43 174.04 246.27 174.04 246.27 158.33 261.98 158.33 261.98 152.5"/>
    </g>
    <g id="First_Plus" data-name="First Plus">
      <polygon class="cls-2" points="246.11 179.05 230.4 179.05 230.4 163.34 224.56 163.34 224.56 179.05 208.85 179.05 208.85 184.88 224.56 184.88 224.56 200.59 230.4 200.59 230.4 184.88 246.11 184.88 246.11 179.05"/>
    </g>
    <g id="S">
      <path class="cls-1" d="M206.25,187.8v-11.6h8.34v-1.4c0-1.35-.01-3.28-.12-5.58-.03-.62-.21-4.67-.55-7.36,0,0-.83-6.6-4.2-12.88-4.35-8.1-13.36-11.78-26.04-16.95-9.93-4.05-15.44-4.93-18.82-10.58-1.88-3.14-2.17-6.47-2.11-8.79v-10.38c0-7.35,6.45-13.31,14.41-13.31,7.55,0,13.73,5.36,14.35,12.18v11.51h23.08v-11.97h-.04c-.78-18.48-17.24-33.24-37.43-33.24s-36.65,14.76-37.43,33.24h-.04v11.97c-.03,7.14-.02,7.37-.02,7.37.27,9.07,7.69,16.68,9.09,18.12,4.07,4.18,8.15,6.24,10.34,7.3,12.32,5.96,30.85,11.05,32.19,18.17.09.5.59,3.64.77,7.71.06,1.45.07,2.66.07,3.49v10.49h.02c.03.34.06.69.06,1.04,0,7.5-6.59,13.59-14.71,13.59s-14.71-6.08-14.71-13.59c0-.35.03-.69.06-1.04h-.06v-10.49h-23.08v10.49c0,19.11,16.77,34.61,37.47,34.61s35.96-14.16,37.36-32.09h-8.23Z"/>
    </g>
    <g id="C">
      <path class="cls-1" d="M104.72,112.4h21.72v-12.06h-.04c-.74-18.63-16.26-33.51-35.31-33.51s-34.57,14.88-35.31,33.51h-.04v85.29c0,19.27,15.83,34.89,35.35,34.89s35.35-15.62,35.35-34.89v-10.68h-21.24v10.68h.02c.03.35.05.69.05,1.05,0,7.57-6.21,13.7-13.88,13.7s-13.88-6.13-13.88-13.7c0-.35.03-.7.05-1.05h-.05v-83.69c0-7.41,6.09-13.42,13.6-13.42,7.12,0,12.95,5.4,13.54,12.28v11.6h.06Z"/>
    </g>
  </g>
</svg>