<?xml version="1.0" encoding="UTF-8"?>
<!DOCTYPE svg PUBLIC "-//W3C//DTD SVG 1.1//EN" "http://www.w3.org/Graphics/SVG/1.1/DTD/svg11.dtd">
<svg xmlns="http://www.w3.org/2000/svg" version="1.1" width="574px" height="576px" style="shape-rendering:geometricPrecision; text-rendering:geometricPrecision; image-rendering:optimizeQuality; fill-rule:evenodd; clip-rule:evenodd" xmlns:xlink="http://www.w3.org/1999/xlink">
<g><path style="opacity:0.97" fill="#3f58ff" d="M 167.5,135.5 C 206.277,132.791 230.777,150.125 241,187.5C 242.304,197.789 242.804,208.122 242.5,218.5C 229.167,218.5 215.833,218.5 202.5,218.5C 203.28,208.125 201.78,198.125 198,188.5C 189.002,176.064 177.502,173.231 163.5,180C 157.649,185.535 154.483,192.369 154,200.5C 153.333,251.833 153.333,303.167 154,354.5C 156.943,371.898 167.11,378.731 184.5,375C 193.507,372.495 199.007,366.662 201,357.5C 202.142,349.875 202.642,342.208 202.5,334.5C 215.833,334.5 229.167,334.5 242.5,334.5C 246.017,360.449 238.683,382.616 220.5,401C 193.864,421.596 166.197,422.93 137.5,405C 124.225,394.291 116.225,380.458 113.5,363.5C 112.167,305.5 112.167,247.5 113.5,189.5C 119.931,159.735 137.931,141.735 167.5,135.5 Z"/></g>
<g><path style="opacity:0.967" fill="#3f58ff" d="M 326.5,135.5 C 346.865,132.92 364.865,138.087 380.5,151C 401.397,168.679 409.397,191.179 404.5,218.5C 390.833,218.5 377.167,218.5 363.5,218.5C 364.94,205.165 361.773,193.165 354,182.5C 343.694,175.61 332.861,174.777 321.5,180C 311.777,188.83 307.777,199.83 309.5,213C 307.638,224.594 310.972,234.26 319.5,242C 337.833,249.667 356.167,257.333 374.5,265C 387.739,272.35 396.573,283.183 401,297.5C 403.859,310.343 405.026,323.343 404.5,336.5C 399.833,336.5 395.167,336.5 390.5,336.5C 390.5,343.167 390.5,349.833 390.5,356.5C 394.884,356.174 399.217,356.508 403.5,357.5C 396.837,395.489 374.171,415.489 335.5,417.5C 299.977,415.452 277.477,397.452 268,363.5C 266.769,354.208 266.269,344.874 266.5,335.5C 280.167,335.5 293.833,335.5 307.5,335.5C 305.067,348.857 308.067,360.691 316.5,371C 325.718,375.238 335.385,376.571 345.5,375C 357.873,370.617 363.707,361.783 363,348.5C 363.667,339.833 363.667,331.167 363,322.5C 363.416,312.162 359.249,304.329 350.5,299C 337.742,293.08 324.742,287.747 311.5,283C 289.391,274.897 275.891,259.397 271,236.5C 266.182,213.385 268.515,191.051 278,169.5C 285.275,156.225 295.775,146.391 309.5,140C 315.175,138 320.842,136.5 326.5,135.5 Z"/></g>
<g><path style="opacity:0.887" fill="#53a0ff" d="M 451.5,261.5 C 455.5,261.5 459.5,261.5 463.5,261.5C 463.5,271.167 463.5,280.833 463.5,290.5C 473.167,290.5 482.833,290.5 492.5,290.5C 492.5,294.5 492.5,298.5 492.5,302.5C 482.833,302.5 473.167,302.5 463.5,302.5C 463.5,311.833 463.5,321.167 463.5,330.5C 459.5,330.5 455.5,330.5 451.5,330.5C 451.5,321.167 451.5,311.833 451.5,302.5C 442.167,302.5 432.833,302.5 423.5,302.5C 423.5,298.5 423.5,294.5 423.5,290.5C 432.833,290.5 442.167,290.5 451.5,290.5C 451.5,280.833 451.5,271.167 451.5,261.5 Z"/></g>
<g><path style="opacity:0.889" fill="#53a0ff" d="M 422.5,312.5 C 426.5,312.5 430.5,312.5 434.5,312.5C 434.5,321.833 434.5,331.167 434.5,340.5C 443.833,340.5 453.167,340.5 462.5,340.5C 462.5,344.5 462.5,348.5 462.5,352.5C 453.167,352.5 443.833,352.5 434.5,352.5C 434.5,362.167 434.5,371.833 434.5,381.5C 430.5,381.5 426.5,381.5 422.5,381.5C 422.5,371.833 422.5,362.167 422.5,352.5C 412.833,352.5 403.167,352.5 393.5,352.5C 393.5,348.5 393.5,344.5 393.5,340.5C 403.167,340.5 412.833,340.5 422.5,340.5C 422.5,331.167 422.5,321.833 422.5,312.5 Z"/></g>
</svg>
