<?xml version="1.0" encoding="UTF-8"?>
<svg xmlns="http://www.w3.org/2000/svg" viewBox="0 0 206.23 153.69">
  <defs>
    <style>
      .cls-1 {
        fill: #3f59ff;
      }

      .cls-2 {
        fill: #53a0ff;
      }
    </style>
  </defs>
  <g id="C">
    <path class="cls-1" d="M48.97,45.57h21.72v-12.06h-.04C69.92,14.88,54.4,0,35.35,0S.77,14.88.04,33.51h-.04v85.29c0,19.27,15.83,34.89,35.35,34.89s35.35-15.62,35.35-34.89v-10.68h-21.24v10.68h.02c.03.35.05.69.05,1.05,0,7.57-6.21,13.7-13.88,13.7s-13.88-6.13-13.88-13.7c0-.35.03-.7.05-1.05h-.05V35.11c0-7.41,6.09-13.42,13.6-13.42,7.12,0,12.95,5.4,13.54,12.28v11.6h.06Z"/>
  </g>
  <g id="S">
    <path class="cls-1" d="M150.5,120.97v-11.6h8.34v-1.4c0-1.35-.01-3.28-.12-5.58-.03-.62-.21-4.67-.55-7.36,0,0-.83-6.6-4.2-12.88-4.35-8.1-13.36-11.78-26.04-16.95-9.93-4.05-15.44-4.93-18.82-10.58-1.88-3.14-2.17-6.47-2.11-8.79v-10.38c0-7.35,6.45-13.31,14.41-13.31,7.55,0,13.73,5.36,14.35,12.18v11.51h23.08v-11.97h-.04C158.02,15.38,141.57.62,121.38.62s-36.65,14.76-37.43,33.24h-.04v11.97c-.03,7.14-.02,7.37-.02,7.37.27,9.07,7.69,16.68,9.09,18.12,4.07,4.18,8.15,6.24,10.34,7.3,12.32,5.96,30.85,11.05,32.19,18.17.09.5.59,3.64.77,7.71.06,1.45.07,2.66.07,3.49v10.49h.02c.03.34.06.69.06,1.04,0,7.5-6.59,13.59-14.71,13.59s-14.71-6.08-14.71-13.59c0-.35.03-.69.06-1.04h-.06v-10.49h-23.08v10.49c0,19.11,16.77,34.61,37.47,34.61s35.96-14.16,37.36-32.09h-8.23Z"/>
  </g>
  <g id="First_Plus" data-name="First Plus">
    <polygon class="cls-2" points="190.36 112.22 174.65 112.22 174.65 96.51 168.81 96.51 168.81 112.22 153.1 112.22 153.1 118.06 168.81 118.06 168.81 133.77 174.65 133.77 174.65 118.06 190.36 118.06 190.36 112.22"/>
  </g>
  <g id="Second_Plus" data-name="Second Plus">
    <polygon class="cls-2" points="206.23 85.67 190.52 85.67 190.52 69.96 184.68 69.96 184.68 85.67 168.97 85.67 168.97 91.5 184.68 91.5 184.68 107.21 190.52 107.21 190.52 91.5 206.23 91.5 206.23 85.67"/>
  </g>
</svg>